# xmcd
#
# Track frame offsets: 
#        150
#        9645
#        17625
#        25200
#        36675
#        46800
#        54600
#        60360
#        65400
#        70500
#        74925
#        80925
#        85050
#        101175
#        112575
#        115875
#        119400
#        123340
#        129375
#        146175
#        154790
#        161850
#
# Disc length: 2269 seconds
#
# Revision: 1
# Processed by: cddbd v1.5.2PL0 Copyright (c) Steve Scherf et al.
# Submitted via: ExactAudioCopy v0.90b3
#
DISCID=3d08db16
DTITLE=Γιάννης Μαρκόπουλος - Ντενεκεδούπολη
DYEAR=1980
DGENRE=
TTITLE0=Εισαγωγή
TTITLE1=Αποθήκη
TTITLE2=Ελατήρια
TTITLE3=Καλαμάρης
TTITLE4=Μελένιος
TTITLE5=Ζουληχτής
TTITLE6=Σκιάχτρο
TTITLE7=Σαρδέλλα
TTITLE8=Μηλίτσα
TTITLE9=Βουτυρένιος
TTITLE10=Σοφός
TTITLE11=Οκέυ, μπαμ-μπαμ
TTITLE12=Ντενεκεδούπολη
TTITLE13=Καταστροφή
TTITLE14=Κακάο
TTITLE15=Κρασί
TTITLE16=Τσίχλα
TTITLE17=Το πλούσιο φυσερό
TTITLE18=Έι, ντενεκεδάκια
TTITLE19=Καμινάδες
TTITLE20=Ποιος να το ’κανε, ποιος;
TTITLE21=Στη φωτιά
EXTD=
EXTT0=
EXTT1=
EXTT2=
EXTT3=
EXTT4=
EXTT5=
EXTT6=
EXTT7=
EXTT8=
EXTT9=
EXTT10=
EXTT11=
EXTT12=
EXTT13=
EXTT14=
EXTT15=
EXTT16=
EXTT17=
EXTT18=
EXTT19=
EXTT20=
EXTT21=
PLAYORDER=
